<svg xmlns="http://www.w3.org/2000/svg" viewBox="0 0 100 20">
<defs><style>.cls-1{fill:none;}.cls-2{fill:#fff;}</style></defs>
<rect class="cls-1" width="100" height="20"/>
<rect class="cls-2" x="1" y="4.61" width="4.61" height="10.78" rx="0.78"/>
<path class="cls-2" d="M27.11,4.61h-9.8a2.75,2.75,0,0,0-2.75,2.74v5.3a2.75,2.75,0,0,0,2.75,2.74h9.8a2.74,2.74,0,0,0,2.74-2.74V7.35A2.74,2.74,0,0,0,27.11,4.61ZM25.24,13a.78.78,0,0,1-.78.78H20a.78.78,0,0,1-.78-.78V7A.78.78,0,0,1,20,6.18h4.51a.78.78,0,0,1,.78.78Z"/>
<path class="cls-2" d="M48.31,4.61H36.55a.78.78,0,0,0-.78.78v9.22a.78.78,0,0,0,.78.78H48.31a2.74,2.74,0,0,0,2.74-2.74V7.35A2.74,2.74,0,0,0,48.31,4.61ZM46.45,13a.78.78,0,0,1-.79.78h-4.5a.79.79,0,0,1-.79-.78V7a.79.79,0,0,1,.79-.78h4.5a.78.78,0,0,1,.79.78Z"/>
<path class="cls-2" d="M84,5a.38.38,0,0,0-.39-.39h-15c-.62,0-1.22,0-1.33,0l-.08.07A.43.43,0,0,0,67,5v.79a.39.39,0,0,0,.11.27.38.38,0,0,0,.28.12H72.8a.39.39,0,0,1,.28.11.44.44,0,0,1,.12.28v8a.79.79,0,0,0,.23.56.75.75,0,0,0,.55.23h3a.75.75,0,0,0,.55-.23.79.79,0,0,0,.23-.56v-8a.39.39,0,0,1,.12-.28.39.39,0,0,1,.27-.11h5.4a.39.39,0,0,0,.28-.12L83.94,6a9.37,9.37,0,0,0,0-1Z"/>
<path class="cls-2" d="M11.85,10.93a1.45,1.45,0,0,1-.57.58,1.55,1.55,0,0,1-.78.21H7.72a.52.52,0,0,1-.46-.27.55.55,0,0,1,0-.54L8.32,9.06a1.56,1.56,0,0,1,.57-.57,1.58,1.58,0,0,1,.79-.21h2.77a.54.54,0,0,1,.47.81Z"/><path class="cls-2" d="M65.61,15a.71.71,0,0,0,.29.28.77.77,0,0,0,.39.11h3.57a.4.4,0,0,0,.34-.2.39.39,0,0,0,0-.39L65.45,6.57a4,4,0,0,0-3.39-2H60.2a4,4,0,0,0-3.4,2L52.05,14.8a.39.39,0,0,0,0,.39.4.4,0,0,0,.34.2H56a.77.77,0,0,0,.39-.11.71.71,0,0,0,.29-.28l.63-1.09a.78.78,0,0,1,.28-.29.82.82,0,0,1,.4-.1h6.36a.78.78,0,0,1,.39.1.81.81,0,0,1,.29.29ZM59,12a.38.38,0,0,1-.34-.2.39.39,0,0,1,0-.39l2.15-3.71a.39.39,0,0,1,.68,0l2.14,3.71a.39.39,0,0,1,0,.39.38.38,0,0,1-.34.2Z"/>
<path class="cls-2" d="M86,13.91a.81.81,0,0,1,.29-.29.76.76,0,0,1,.39-.1h6.36a.76.76,0,0,1,.39.1.81.81,0,0,1,.29.29L94.36,15a.69.69,0,0,0,.28.28.8.8,0,0,0,.4.11h3.57a.4.4,0,0,0,.34-.2.39.39,0,0,0,0-.39L94.19,6.57a3.78,3.78,0,0,0-1.43-1.43,3.87,3.87,0,0,0-2-.53H88.94a3.93,3.93,0,0,0-3.39,2L80.79,14.8a.45.45,0,0,0,0,.39.4.4,0,0,0,.34.2h3.58a.77.77,0,0,0,.39-.11.71.71,0,0,0,.29-.28Zm1.72-2a.38.38,0,0,1-.34-.2.39.39,0,0,1,0-.39l2.14-3.71a.39.39,0,0,1,.68,0l2.15,3.71a.39.39,0,0,1,0,.39A.38.38,0,0,1,92,12Z"/>
</svg>