<svg viewBox="0 0 300 48" version="1.1" xmlns="http://www.w3.org/2000/svg" xmlns:xlink="http://www.w3.org/1999/xlink">
    <g id="login-page" stroke="none" stroke-width="1" fill="none" fill-rule="evenodd">
        <g id="Login--1140px" transform="translate(-88.000000, -272.000000)">
            <g id="Rectangle">
                <use fill="black" fill-opacity="1" filter="url(#filter-3)" xlink:href="#path-2"></use>
                <use fill="url(#linearGradient-1)" fill-rule="evenodd" xlink:href="#path-2"></use>
            </g>
            <g id="PDU-1" transform="translate(88.000000, 272.000000)">
                <rect id="Rectangle-4" stroke="#FFFFFF" x="0.5" y="0.5" width="299" height="46.8723404" rx="2"></rect>
                <g id="Group-3" transform="translate(130.000000, 14.000000)">
                    <g id="Group-7">
                        <rect id="Rectangle-11" fill="#FFFFFF" x="0" y="0" width="19.9468085" height="19.9468085" rx="3"></rect>
                        <path d="M7.42395279,10.4596077 C7.42395279,10.9450142 7.03045306,11.338514 6.54504654,11.338514 L5.66614029,11.338514 C5.18073377,11.338514 4.78723404,10.9450142 4.78723404,10.4596077 L4.78723404,6.06507646 C4.78723404,5.57966994 5.18073377,5.18617021 5.66614029,5.18617021 L6.54504654,5.18617021 C7.03045306,5.18617021 7.42395279,5.57966994 7.42395279,6.06507646 L7.42395279,10.4596077 Z M11.8932846,14.8042719 L8.37765957,14.8042719 L8.37765957,13.9253657 C8.37765957,12.9545527 9.16465904,12.1675532 10.1354721,12.1675532 C11.1062851,12.1675532 11.8932846,12.9545527 11.8932846,13.9253657 L11.8932846,14.8042719 Z M15.4026762,10.4596077 C15.4026762,10.9450142 15.0091765,11.338514 14.5237699,11.338514 L13.6448637,11.338514 C13.1594572,11.338514 12.7659574,10.9450142 12.7659574,10.4596077 L12.7659574,6.06507646 C12.7659574,5.57966994 13.1594572,5.18617021 13.6448637,5.18617021 L14.5237699,5.18617021 C15.0091765,5.18617021 15.4026762,5.57966994 15.4026762,6.06507646 L15.4026762,10.4596077 Z" id="Combined-Shape" fill="#6269DE"></path>
                    </g>
                    <g id="Group-7-Copy-4" transform="translate(56.000000, 0.000000)">
                        <rect id="Rectangle-11" fill="#FFFFFF" x="0" y="0" width="19.9468085" height="19.9468085" rx="3"></rect>
                        <path d="M7.42395279,10.4596077 C7.42395279,10.9450142 7.03045306,11.338514 6.54504654,11.338514 L5.66614029,11.338514 C5.18073377,11.338514 4.78723404,10.9450142 4.78723404,10.4596077 L4.78723404,6.06507646 C4.78723404,5.57966994 5.18073377,5.18617021 5.66614029,5.18617021 L6.54504654,5.18617021 C7.03045306,5.18617021 7.42395279,5.57966994 7.42395279,6.06507646 L7.42395279,10.4596077 Z M11.8932846,14.8042719 L8.37765957,14.8042719 L8.37765957,13.9253657 C8.37765957,12.9545527 9.16465904,12.1675532 10.1354721,12.1675532 C11.1062851,12.1675532 11.8932846,12.9545527 11.8932846,13.9253657 L11.8932846,14.8042719 Z M15.4026762,10.4596077 C15.4026762,10.9450142 15.0091765,11.338514 14.5237699,11.338514 L13.6448637,11.338514 C13.1594572,11.338514 12.7659574,10.9450142 12.7659574,10.4596077 L12.7659574,6.06507646 C12.7659574,5.57966994 13.1594572,5.18617021 13.6448637,5.18617021 L14.5237699,5.18617021 C15.0091765,5.18617021 15.4026762,5.57966994 15.4026762,6.06507646 L15.4026762,10.4596077 Z" id="Combined-Shape" fill="#6269DE"></path>
                    </g>
                    <g id="Group-7-Copy-8" transform="translate(111.000000, 0.000000)">
                        <rect id="Rectangle-11" fill="#FFFFFF" x="0" y="0" width="19.9468085" height="19.9468085" rx="3"></rect>
                        <path d="M7.42395279,10.4596077 C7.42395279,10.9450142 7.03045306,11.338514 6.54504654,11.338514 L5.66614029,11.338514 C5.18073377,11.338514 4.78723404,10.9450142 4.78723404,10.4596077 L4.78723404,6.06507646 C4.78723404,5.57966994 5.18073377,5.18617021 5.66614029,5.18617021 L6.54504654,5.18617021 C7.03045306,5.18617021 7.42395279,5.57966994 7.42395279,6.06507646 L7.42395279,10.4596077 Z M11.8932846,14.8042719 L8.37765957,14.8042719 L8.37765957,13.9253657 C8.37765957,12.9545527 9.16465904,12.1675532 10.1354721,12.1675532 C11.1062851,12.1675532 11.8932846,12.9545527 11.8932846,13.9253657 L11.8932846,14.8042719 Z M15.4026762,10.4596077 C15.4026762,10.9450142 15.0091765,11.338514 14.5237699,11.338514 L13.6448637,11.338514 C13.1594572,11.338514 12.7659574,10.9450142 12.7659574,10.4596077 L12.7659574,6.06507646 C12.7659574,5.57966994 13.1594572,5.18617021 13.6448637,5.18617021 L14.5237699,5.18617021 C15.0091765,5.18617021 15.4026762,5.57966994 15.4026762,6.06507646 L15.4026762,10.4596077 Z" id="Combined-Shape" fill="#6269DE"></path>
                    </g>
                    <g id="Group-7-Copy-2" transform="translate(28.000000, 0.000000)">
                        <rect id="Rectangle-11" fill="#FFFFFF" x="0" y="0" width="19.9468085" height="19.9468085" rx="3"></rect>
                        <path d="M7.42395279,10.4596077 C7.42395279,10.9450142 7.03045306,11.338514 6.54504654,11.338514 L5.66614029,11.338514 C5.18073377,11.338514 4.78723404,10.9450142 4.78723404,10.4596077 L4.78723404,6.06507646 C4.78723404,5.57966994 5.18073377,5.18617021 5.66614029,5.18617021 L6.54504654,5.18617021 C7.03045306,5.18617021 7.42395279,5.57966994 7.42395279,6.06507646 L7.42395279,10.4596077 Z M11.8932846,14.8042719 L8.37765957,14.8042719 L8.37765957,13.9253657 C8.37765957,12.9545527 9.16465904,12.1675532 10.1354721,12.1675532 C11.1062851,12.1675532 11.8932846,12.9545527 11.8932846,13.9253657 L11.8932846,14.8042719 Z M15.4026762,10.4596077 C15.4026762,10.9450142 15.0091765,11.338514 14.5237699,11.338514 L13.6448637,11.338514 C13.1594572,11.338514 12.7659574,10.9450142 12.7659574,10.4596077 L12.7659574,6.06507646 C12.7659574,5.57966994 13.1594572,5.18617021 13.6448637,5.18617021 L14.5237699,5.18617021 C15.0091765,5.18617021 15.4026762,5.57966994 15.4026762,6.06507646 L15.4026762,10.4596077 Z" id="Combined-Shape" fill="#6269DE"></path>
                    </g>
                    <g id="Group-7-Copy-5" transform="translate(84.000000, 0.000000)">
                        <rect id="Rectangle-11" fill="#FFFFFF" x="0" y="0" width="19.9468085" height="19.9468085" rx="3"></rect>
                        <path d="M7.42395279,10.4596077 C7.42395279,10.9450142 7.03045306,11.338514 6.54504654,11.338514 L5.66614029,11.338514 C5.18073377,11.338514 4.78723404,10.9450142 4.78723404,10.4596077 L4.78723404,6.06507646 C4.78723404,5.57966994 5.18073377,5.18617021 5.66614029,5.18617021 L6.54504654,5.18617021 C7.03045306,5.18617021 7.42395279,5.57966994 7.42395279,6.06507646 L7.42395279,10.4596077 Z M11.8932846,14.8042719 L8.37765957,14.8042719 L8.37765957,13.9253657 C8.37765957,12.9545527 9.16465904,12.1675532 10.1354721,12.1675532 C11.1062851,12.1675532 11.8932846,12.9545527 11.8932846,13.9253657 L11.8932846,14.8042719 Z M15.4026762,10.4596077 C15.4026762,10.9450142 15.0091765,11.338514 14.5237699,11.338514 L13.6448637,11.338514 C13.1594572,11.338514 12.7659574,10.9450142 12.7659574,10.4596077 L12.7659574,6.06507646 C12.7659574,5.57966994 13.1594572,5.18617021 13.6448637,5.18617021 L14.5237699,5.18617021 C15.0091765,5.18617021 15.4026762,5.57966994 15.4026762,6.06507646 L15.4026762,10.4596077 Z" id="Combined-Shape" fill="#6269DE"></path>
                    </g>
                    <g id="Group-7-Copy-9" transform="translate(139.000000, 0.000000)">
                        <rect id="Rectangle-11" fill="#FFFFFF" x="0" y="0" width="19.9468085" height="19.9468085" rx="3"></rect>
                        <path d="M7.42395279,10.4596077 C7.42395279,10.9450142 7.03045306,11.338514 6.54504654,11.338514 L5.66614029,11.338514 C5.18073377,11.338514 4.78723404,10.9450142 4.78723404,10.4596077 L4.78723404,6.06507646 C4.78723404,5.57966994 5.18073377,5.18617021 5.66614029,5.18617021 L6.54504654,5.18617021 C7.03045306,5.18617021 7.42395279,5.57966994 7.42395279,6.06507646 L7.42395279,10.4596077 Z M11.8932846,14.8042719 L8.37765957,14.8042719 L8.37765957,13.9253657 C8.37765957,12.9545527 9.16465904,12.1675532 10.1354721,12.1675532 C11.1062851,12.1675532 11.8932846,12.9545527 11.8932846,13.9253657 L11.8932846,14.8042719 Z M15.4026762,10.4596077 C15.4026762,10.9450142 15.0091765,11.338514 14.5237699,11.338514 L13.6448637,11.338514 C13.1594572,11.338514 12.7659574,10.9450142 12.7659574,10.4596077 L12.7659574,6.06507646 C12.7659574,5.57966994 13.1594572,5.18617021 13.6448637,5.18617021 L14.5237699,5.18617021 C15.0091765,5.18617021 15.4026762,5.57966994 15.4026762,6.06507646 L15.4026762,10.4596077 Z" id="Combined-Shape" fill="#6269DE"></path>
                    </g>
                </g>
                <g id="ic/port/Wport-up-Copy-2" transform="translate(70.000000, 33.000000)" fill="#FFFFFF" fill-rule="nonzero">
                    <g id="port_up_disconnected">
                        <polygon id="Union_255" points="0.24 8.9560894 0.24 1.82655812 3.81504 1.82655812 3.81504 0.24205647 8.18304 0.24205647 8.18304 1.82655812 11.76 1.82655812 11.76 8.9560894"></polygon>
                    </g>
                </g>
                <g id="ic/port/Wport-up-Copy-3" transform="translate(86.000000, 33.000000)" fill="#FFFFFF" fill-rule="nonzero">
                    <g id="port_up_disconnected">
                        <polygon id="Union_255" points="0.24 8.9560894 0.24 1.82655812 3.81504 1.82655812 3.81504 0.24205647 8.18304 0.24205647 8.18304 1.82655812 11.76 1.82655812 11.76 8.9560894"></polygon>
                    </g>
                </g>
                <rect id="Rectangle-12-Copy" stroke="#FFFFFF" x="33.5" y="10.5" width="19" height="19" rx="2"></rect>
                <circle id="Oval-5-Copy-3" fill="#FFFFFF" cx="59" cy="15" r="3"></circle>
                <circle id="Oval-5-Copy-4" fill="#FFFFFF" cx="59" cy="26" r="3"></circle>
                <g id="EnGenius-Logo-01-Copy" transform="translate(35.000000, 32.000000)" fill="#FFFFFF" fill-rule="nonzero">
                    <path d="M0.00127392769,1.13073098 L0.430587558,1.13073098 L1.72956916,1.13073098 L1.72956916,1.49244727 L0.430587558,1.49244727 L0.430587558,2.29572796 L1.69687168,2.29572796 L1.69687168,2.64479073 L0.430587558,2.64479073 L0.430587558,3.71903139 L1.74103451,3.71903139 L1.74103451,4.08423831 L0,4.08423831 L0,1.12854933 L0.00127392769,1.13073098 Z M3.08672679,2.19188179 C3.49820543,2.19188179 3.82348163,2.38473896 3.82008449,2.93364016 L3.82008449,2.95371127 L3.82008449,4.09209222 L3.42092048,4.09209222 L3.42092048,2.9541476 L3.42516691,2.9541476 C3.43620762,2.64653604 3.26592595,2.51389219 2.98268936,2.51389219 C2.5521018,2.51389219 2.52280146,2.89175263 2.50199398,2.95458393 L2.50199398,4.09252855 L2.10452854,4.09252855 L2.10452854,2.27129357 L2.50114469,2.27129357 L2.50114469,2.46545973 C2.64915463,2.2919917 2.8626349,2.19232818 3.08715143,2.19188179 L3.08672679,2.19188179 Z M10.154053,2.1844642 C10.5659562,2.1844642 10.8912324,2.37732138 10.8878353,2.92622258 C10.8878353,2.93320384 10.8878353,2.93974876 10.8878353,2.94673002 L10.8878353,4.08511096 L10.487822,4.08511096 L10.487822,2.94542103 L10.4916438,2.94542103 C10.5026845,2.63999111 10.3324028,2.50516562 10.0495909,2.50516562 C9.61900333,2.50516562 9.58970299,2.88302606 9.56847086,2.94629369 L9.56847086,4.08423831 L9.17227935,4.08423831 L9.17227935,2.262567 L9.56847086,2.262567 L9.56847086,2.45629683 C9.71624821,2.28275654 9.9296366,2.18306368 10.154053,2.18271889 L10.154053,2.1844642 Z M5.71399032,2.52349141 L6.54161868,2.52349141 C6.5414079,2.52146097 6.5414079,2.51941326 6.54161868,2.51738282 L6.92379698,2.51738282 L6.92379698,2.52218243 C6.8910995,3.5658801 6.26814887,4.09863715 5.47661513,4.09907347 C4.68508139,4.0995098 4.0396247,3.40923818 4.03920005,2.5631973 C4.03877541,1.71715642 4.63964464,1.04957388 5.4753412,1.02644848 C6.00996619,1.01161331 6.46645694,1.20097986 6.71784534,1.61287392 L6.44480017,1.85110926 C6.27494315,1.51600901 5.90847661,1.35194951 5.47703977,1.38641945 C4.82648737,1.43834254 4.41543337,1.90739563 4.41543337,2.54530784 C4.41543337,3.18322004 4.89273161,3.70288724 5.47703977,3.70288724 C5.96452943,3.70288724 6.34968024,3.46334291 6.48811371,2.88040809 L5.71399032,2.88040809 L5.71399032,2.52349141 Z M7.48687302,2.90178819 L8.57395798,2.90178819 C8.50643981,2.59984889 8.32256958,2.46545973 8.0563187,2.46545973 C7.79456081,2.46880738 7.56466874,2.64495843 7.48687302,2.90178819 Z M8.9412738,3.18016574 L8.9412738,3.18758333 L7.46181911,3.18758333 C7.50003694,3.49912185 7.73995999,3.74608375 8.04273013,3.74564742 C8.28052997,3.74564742 8.54593157,3.60864029 8.63213401,3.39134872 L8.97651913,3.575043 C8.85294814,3.91057958 8.41047059,4.1025641 8.01173123,4.1025641 C7.75736587,4.10175914 7.5137936,3.99685859 7.33488811,3.81106453 C7.15598261,3.62527046 7.05648729,3.37389395 7.05840867,3.11253483 C7.05840867,2.57366919 7.44058698,2.1277415 8.027443,2.13908604 C8.61429902,2.15043058 9.0041209,2.49774804 8.97482056,3.1749298 C8.9749313,3.17609056 8.9749313,3.17725967 8.97482056,3.17842043 L8.93999987,3.17842043 L8.9412738,3.18016574 Z M11.3511203,2.25253144 L11.780434,2.25253144 L11.780434,4.08511096 L11.3523943,4.08511096 L11.3523943,2.25253144 L11.3511203,2.25253144 Z M11.5634416,1.49070195 C11.6789627,1.49071071 11.7727359,1.5866869 11.7731979,1.70538614 C11.7736599,1.82408537 11.6806369,1.92082922 11.5651196,1.92178745 C11.4496022,1.92274568 11.3550713,1.82755761 11.3536682,1.70886618 C11.3528713,1.6512124 11.3746338,1.59564346 11.4140731,1.5546266 C11.4535124,1.51360975 11.5073264,1.49057918 11.5634416,1.49070195 Z M13.9189339,3.23339781 C13.9524807,3.82942249 13.6136159,4.08467464 13.0696488,4.08467464 C12.4963813,4.08467464 12.2628279,3.78797128 12.2203637,3.3865491 L12.2131447,3.24517868 L12.2131447,2.23289666 L12.6212262,2.23289666 L12.6212262,2.48858514 L12.625048,3.23645211 L12.625048,3.39614833 C12.625048,3.55104493 12.81274,3.75873728 13.0921548,3.75830095 C13.3144348,3.76667025 13.5016235,3.58914062 13.5112771,3.36080572 L13.5112771,2.20366265 L13.9193586,2.20366265 L13.9193586,3.23339781 L13.9189339,3.23339781 Z M14.8756536,2.1338501 C15.1304391,2.1338501 15.350404,2.27216622 15.4395789,2.46764137 L15.0998649,2.63344619 C15.068534,2.53878702 14.9846636,2.47294668 14.8875436,2.46676871 C14.769493,2.45978746 14.662483,2.54574417 14.6629077,2.65962589 C14.6629077,2.75081854 14.8021904,2.82892133 14.9002829,2.85771901 C14.9580343,2.88128075 15.1661091,2.96723746 15.304118,3.03835899 L15.3019947,3.03835899 C15.4833171,3.12562469 15.6026417,3.28444824 15.5886285,3.5122117 C15.5436164,3.85647485 15.2633523,4.08292932 14.8773522,4.08336565 C14.5533499,4.08336565 14.2794554,3.90359833 14.1979241,3.6609997 L14.5588703,3.50697576 C14.598767,3.62528711 14.6978959,3.71211595 14.8179022,3.73386656 C14.9745953,3.76746385 15.1236449,3.73168491 15.1622873,3.52879218 C15.2170662,3.32328148 14.9499661,3.31891819 14.793273,3.20416381 C14.6832379,3.16339476 14.5784322,3.10903703 14.4811607,3.04228595 C14.316824,2.94891166 14.2735105,2.81583148 14.2735105,2.66049855 C14.2760583,2.37208544 14.5418846,2.13428643 14.8760782,2.1338501 L14.8756536,2.1338501 Z" id="Shape"></path>
                    <path d="M11.5554247,3.54495908e-15 C12.0792321,0.0012911582 12.577277,0.222944213 12.9230769,0.608668538 L12.8268112,0.697224821 C12.5029141,0.331987578 12.0325376,0.123549267 11.5388863,0.126505634 C11.045235,0.129462 10.577491,0.343518502 10.2581694,0.712607837 L10.1538462,0.635692755 C10.5049943,0.235851837 11.0151374,0.00412338593 11.5533043,0 L11.5554247,3.54495908e-15 Z M11.5554247,0.890551918 C11.8098112,0.890742159 12.0452658,1.02235425 12.1750029,1.23687766 L12.0800094,1.31670305 L12.0749205,1.3200291 C11.970117,1.13113579 11.7672535,1.01465489 11.5479389,1.01744498 C11.3286244,1.02023507 11.1289121,1.14183749 11.0291436,1.33333333 L10.9277889,1.25018189 C11.055196,1.0276168 11.2950974,0.889678591 11.5554247,0.889304646 L11.5554247,0.890551918 Z M11.5554247,0.448186259 C11.1595443,0.449460806 10.7874255,0.63356414 10.5512074,0.945016111 L10.6474732,1.02151543 C10.8618411,0.740861609 11.1982128,0.575206025 11.5558487,0.57416069 C11.9046451,0.576528906 12.2315596,0.741176672 12.4366592,1.01777362 L12.5397102,0.93171188 C12.3061962,0.62920758 11.9423765,0.450482883 11.5554247,0.448186259 Z" id="Shape"></path>
                    <path d="M15.8395095,2.15384659 C15.9059137,2.15372224 15.9696339,2.18002147 16.0165888,2.22693246 C16.0635438,2.27384346 16.0898676,2.3375041 16.0897432,2.40384615 C16.0898674,2.47010715 16.0636076,2.53369678 16.016754,2.58059427 C15.9699003,2.62749176 15.9063004,2.65384583 15.8399772,2.65384572 C15.7736542,2.6539698 15.710005,2.62773466 15.6630636,2.58092482 C15.6161222,2.53411499 15.5897435,2.47057456 15.5897436,2.40431344 C15.5899999,2.26653096 15.7015987,2.15482776 15.8395095,2.15431388 L15.8395095,2.15384659 Z M15.8395095,2.19590259 C15.7249535,2.19666959 15.632349,2.28939583 15.631839,2.40384615 C15.6323512,2.51847757 15.7252385,2.61127796 15.8399772,2.61178971 C15.8950443,2.6112738 15.9477366,2.58931127 15.9868433,2.55057487 C16.0258577,2.51151343 16.0477315,2.45856093 16.0476478,2.40337887 C16.0473906,2.28864142 15.9543544,2.19569228 15.8395095,2.1954353 L15.8395095,2.19590259 Z" id="Shape"></path>
                    <path d="M15.6923077,2.75401898 L15.6923077,2.25663412 L15.9442608,2.25663412 C15.9836875,2.25530562 16.0230779,2.25989865 16.0604718,2.27018467 C16.0875842,2.27949094 16.1099823,2.29608518 16.1239483,2.31721304 C16.140015,2.33996702 16.148122,2.36588396 16.1473858,2.39213961 C16.1489017,2.42488893 16.1349136,2.45685767 16.1083233,2.48141382 C16.0762354,2.50838347 16.033159,2.52482922 15.9872296,2.5276451 C16.0034591,2.53424822 16.0185611,2.54255526 16.0321514,2.55235493 C16.0564256,2.57238693 16.0774323,2.5948912 16.0946514,2.61931058 L16.1923077,2.75401898 L16.0946514,2.75401898 L16.0194561,2.65039714 C15.9969952,2.62090476 15.9784405,2.59778912 15.9647686,2.5818473 C15.9538169,2.56968342 15.9410195,2.55870225 15.9266827,2.54916656 C15.9163351,2.54307058 15.9047705,2.53848578 15.892503,2.53561601 C15.8785401,2.53448125 15.8644737,2.53448125 15.8505108,2.53561601 L15.7626202,2.53561601 L15.7626202,2.75641026 L15.6923077,2.75401898 Z M15.767503,2.47663127 L15.9296124,2.47663127 C15.9571193,2.47750621 15.9845902,2.47426443 16.0106671,2.46706618 C16.0291026,2.46133318 16.0446001,2.45065148 16.0546124,2.43677671 C16.0816157,2.40441328 16.0758212,2.36083356 16.0409405,2.33395196 C16.0143807,2.3175345 15.9813902,2.30959797 15.9481671,2.31163341 L15.767503,2.31163341 L15.767503,2.47663127 Z" id="Shape"></path>
                </g>
                <g id="Group-2-Copy" transform="translate(16.000000, 28.500000) scale(-1, 1) rotate(-90.000000) translate(-16.000000, -28.500000) translate(8.000000, 24.000000)">
                    <path d="M0.5,0.5 L0.5,4.2262599 L3.71986217,8.3 L11.6523487,8.3 L15.2665151,4.21071323 L15.2665151,0.5 L0.5,0.5 Z" id="Rectangle-10" stroke="#FFFFFF"></path>
                    <rect id="Rectangle-15" fill="#FFFFFF" x="5" y="2" width="1" height="3" rx="0.5"></rect>
                    <rect id="Rectangle-15-Copy" fill="#FFFFFF" x="10" y="2" width="1" height="3" rx="0.5"></rect>
                    <rect id="Rectangle-15-Copy-2" fill="#FFFFFF" x="7.5" y="4" width="1" height="3" rx="0.5"></rect>
                </g>
            </g>
        </g>
    </g>
</svg>