<svg viewBox="0 0 25 25" version="1.1" xmlns="http://www.w3.org/2000/svg" xmlns:xlink="http://www.w3.org/1999/xlink">
  <path fill='currentColor' d="M3,0 L22,0 C23.6568542,-3.04359188e-16 25,1.34314575 25,3 L25,22 C25,23.6568542 23.6568542,25 22,25 L3,25 C1.34314575,25 2.02906125e-16,23.6568542 0,22 L0,3 C-2.02906125e-16,1.34314575 1.34314575,3.04359188e-16 3,0 Z M9.3046875,13.109375 L9.3046875,7.6015625 C9.3046875,6.99318633 8.81150117,6.5 8.203125,6.5 L7.1015625,6.5 C6.49318633,6.5 6,6.99318633 6,7.6015625 L6,13.109375 C6,13.7177512 6.49318633,14.2109375 7.1015625,14.2109375 L8.203125,14.2109375 C8.81150117,14.2109375 9.3046875,13.7177512 9.3046875,13.109375 Z M14.90625,18.5546875 L14.90625,17.453125 C14.90625,16.2363727 13.9198773,15.25 12.703125,15.25 C11.4863727,15.25 10.5,16.2363727 10.5,17.453125 L10.5,18.5546875 L14.90625,18.5546875 Z M19.3046875,13.109375 L19.3046875,7.6015625 C19.3046875,6.99318633 18.8115012,6.5 18.203125,6.5 L17.1015625,6.5 C16.4931863,6.5 16,6.99318633 16,7.6015625 L16,13.109375 C16,13.7177512 16.4931863,14.2109375 17.1015625,14.2109375 L18.203125,14.2109375 C18.8115012,14.2109375 19.3046875,13.7177512 19.3046875,13.109375 Z"></path>
</svg>