<svg viewBox="0 0 16 16" xmlns="http://www.w3.org/2000/svg" xmlns:xlink="http://www.w3.org/1999/xlink">
    <path fill="currentColor" d="M3,0 L13,0 C14.6568542,-3.04359188e-16 16,1.34314575 16,3 L16,13 C16,14.6568542 14.6568542,16 13,16 L3,16 C1.34314575,16 2.02906125e-16,14.6568542 0,13 L0,3 C-2.02906125e-16,1.34314575 1.34314575,3.04359188e-16 3,0 Z M5.955,8.39 L5.955,4.865 C5.955,4.47563925 5.63936075,4.16 5.25,4.16 L4.545,4.16 C4.15563925,4.16 3.84,4.47563925 3.84,4.865 L3.84,8.39 C3.84,8.77936075 4.15563925,9.095 4.545,9.095 L5.25,9.095 C5.63936075,9.095 5.955,8.77936075 5.955,8.39 Z M9.54,11.875 L9.54,11.17 C9.54,10.3912785 8.9087215,9.76 8.13,9.76 C7.3512785,9.76 6.72,10.3912785 6.72,11.17 L6.72,11.875 L9.54,11.875 Z M12.355,8.39 L12.355,4.865 C12.355,4.47563925 12.0393607,4.16 11.65,4.16 L10.945,4.16 C10.5556393,4.16 10.24,4.47563925 10.24,4.865 L10.24,8.39 C10.24,8.77936075 10.5556393,9.095 10.945,9.095 L11.65,9.095 C12.0393607,9.095 12.355,8.77936075 12.355,8.39 Z"></path>
</svg>